<?xml version="1.0" encoding="UTF-8"?>
<svg id="Layer_1" data-name="Layer 1" xmlns="http://www.w3.org/2000/svg" viewBox="0 0 1750.97 513.13">
  <defs>
    <style>
      .cls-1 {
        fill: #49120f;
      }

      .cls-2 {
        fill: none;
        stroke: #dca964;
        stroke-miterlimit: 10;
        stroke-width: 6.09px;
      }

      .cls-3 {
        fill: #932f29;
      }
    </style>
  </defs>
  <g>
    <g>
      <path class="cls-1" d="M294.08,189.24c-47.53-25.09-84.41-61.21-133.83-61.21-56.65,0-101.13,47.15-101.13,97.71,0,33.08,19.39,55.51,45.24,55.51,21.67,0,33.46-15.97,33.46-30.04,0-4.94-1.52-9.5-5.32-11.79,5.7-7.22,13.31-10.65,20.53-10.65,11.79,0,22.43,8.75,22.43,25.09,0,30.8-38.02,47.53-72.24,47.53-45.63,0-89.73-29.66-89.73-82.89,0-72.24,82.13-114.06,158.93-114.06,109.12,0,151.32,84.79,236.87,84.79,40.3,0,50.57-19.01,50.57-33.84,0-12.55-7.22-20.53-15.59-20.53-1.9,0-3.42.38-4.94.76.76-16.35,13.31-28.9,30.04-28.9,11.41,0,31.94,6.08,31.94,30.8,0,39.92-52.09,75.28-117.86,75.28-28.52,0-52.47-6.46-74.14-15.97-3.8,18.63-19.39,107.6-23.95,132.31-4.18,24.71-10.65,66.16-14.07,90.49-2.66,17.11-2.66,30.04,12.55,30.04,5.32,0,7.22,2.28,6.46,7.6l-1.9,9.12c-.76,5.32-3.42,7.6-8.75,7.6-28.13-2.66-56.27-2.66-85.17,0-2.66,0-7.6-.76-6.46-7.6l1.9-9.12c.76-5.32,3.42-7.6,8.74-7.6,14.45,0,19.77-12.55,23.19-30.04,6.84-33.84,12.17-66.16,16.35-90.49,4.56-25.09,19.01-115.58,21.29-133.07.76-5.32,3.42-7.98,8.75-7.6,8.36.76,17.11,1.14,25.85.76Z"/>
      <path class="cls-1" d="M462.51,466.41l1.9-9.12c.76-5.32,3.42-7.6,8.75-7.6,14.45,0,19.39-12.55,23.19-30.04l6.84-34.98c1.14-5.32-.76-7.6-6.08-7.6h-87.07c-5.32,0-7.98,2.28-8.75,7.6-1.52,8.36-4.56,26.23-5.7,34.98-2.28,17.11-2.66,30.04,12.55,30.04,5.32,0,7.22,2.28,6.46,7.6l-1.9,9.12c-.76,5.32-3.42,7.6-8.75,7.6-28.13-2.66-56.27-2.66-85.17,0-2.66,0-7.6-.76-6.46-7.6l1.9-9.12c.76-5.32,3.42-7.6,8.75-7.6,14.45,0,19.39-12.55,23.19-30.04,6.08-27.38,19.39-103.42,23.19-130.79,2.28-17.49,1.9-30.04-12.55-30.04-2.66,0-7.6-.76-6.46-7.6l1.9-9.12c.76-5.32,3.42-7.6,8.75-7.6,26.99,2.66,55.13,2.66,85.17,0,5.32-.38,7.22,2.28,6.46,7.6l-1.9,9.12c-.76,5.32-3.42,7.6-8.75,7.6-14.83,0-19.39,12.55-23.19,30.04-3.04,13.31-6.84,33.08-9.89,50.57-1.14,5.32.76,7.6,6.08,7.6h87.45c5.32,0,7.98-2.28,8.74-7.6,3.04-17.49,6.46-37.26,8.36-50.57,2.28-17.49,1.9-30.04-12.55-30.04-2.66,0-7.6-.76-6.46-7.6l1.9-9.12c.76-5.32,3.42-7.6,8.74-7.6,27,2.66,55.13,2.66,85.17,0,5.32-.38,7.22,2.28,6.46,7.6l-1.9,9.12c-.76,5.32-3.42,7.6-8.74,7.6-14.83,0-19.39,12.55-23.19,30.04-6.08,27.37-19.39,103.42-23.19,130.79-2.28,17.11-2.66,30.04,12.55,30.04,5.32,0,7.22,2.28,6.46,7.6l-1.9,9.12c-.76,5.32-3.42,7.6-8.75,7.6-28.13-2.66-56.27-2.66-85.17,0-2.66,0-7.6-.76-6.46-7.6Z"/>
      <path class="cls-1" d="M581.52,466.41l1.9-9.12c.76-5.32,3.42-7.6,8.75-7.6,14.45,0,19.39-12.55,23.19-30.04,6.08-27.38,19.39-103.42,23.19-130.79,2.28-17.49,1.9-30.04-12.55-30.04-2.66,0-7.6-.76-6.46-7.6l1.9-9.12c.76-5.32,3.42-7.6,8.75-7.6,26.23,2.66,54.37,2.66,83.65,0,5.32-.38,7.22,2.28,6.46,7.6l-1.9,9.12c-.76,5.32-3.42,7.6-8.75,7.6-14.83,0-19.39,12.55-23.19,30.04-6.08,27.37-19.39,103.42-23.19,130.79-2.28,17.11-2.66,30.04,12.55,30.04,5.32,0,7.22,2.28,6.46,7.6l-1.9,9.12c-.76,5.32-3.42,7.6-8.74,7.6-27.38-2.66-55.51-2.66-83.65,0-2.66,0-7.6-.76-6.46-7.6Z"/>
      <path class="cls-1" d="M756.41,288.85c2.28-17.49,1.9-30.04-12.55-30.04-2.66,0-7.6-.76-6.46-7.6l1.9-9.12c.76-5.32,3.42-7.6,8.75-7.6,26.99,2.66,55.13,2.66,85.17,0,5.32-.38,7.22,2.28,6.46,7.6l-1.9,9.12c-.76,5.32-3.42,7.6-8.75,7.6-14.83,0-19.39,12.55-23.19,30.04-4.94,21.67-15.97,84.03-20.15,111.78l-2.66,19.01c-2.28,17.11-2.28,30.04,25.85,30.04h4.94c25.85,0,52.47-24.71,65.78-52.85,4.18-8.74,28.9-8.36,25.47.38l-28.9,71.1c-1.9,4.94-5.7,6.84-11.03,6.84-51.71-2.28-106.84-2.66-159.31,0-2.66,0-7.6-.76-6.46-7.6l2.28-10.27c.76-5.32,3.42-7.6,8.74-7.6,14.45,0,19.77-12.55,23.19-30.04l4.18-19.01c5.7-27.76,15.59-90.11,18.63-111.78Z"/>
      <path class="cls-1" d="M948.79,288.85c2.28-17.49,1.9-30.04-12.55-30.04-2.66,0-7.6-.76-6.46-7.6l1.9-9.12c.76-5.32,3.42-7.6,8.74-7.6,26.99,2.66,55.13,2.66,85.17,0,5.32-.38,7.22,2.28,6.46,7.6l-1.9,9.12c-.76,5.32-3.42,7.6-8.74,7.6-14.83,0-19.39,12.55-23.19,30.04-4.94,21.67-15.97,84.03-20.15,111.78l-2.66,19.01c-2.28,17.11-2.28,30.04,25.85,30.04h4.94c25.85,0,52.47-24.71,65.78-52.85,4.18-8.74,28.9-8.36,25.47.38l-28.9,71.1c-1.9,4.94-5.7,6.84-11.03,6.84-51.71-2.28-106.84-2.66-159.31,0-2.66,0-7.6-.76-6.46-7.6l2.28-10.27c.76-5.32,3.42-7.6,8.75-7.6,14.45,0,19.77-12.55,23.19-30.04l4.18-19.01c5.7-27.76,15.59-90.11,18.63-111.78Z"/>
      <path class="cls-1" d="M1267.03,348.16l9.13,76.42c2.28,17.87,9.13,25.09,20.53,25.09,5.32,0,7.22,2.28,6.08,7.6l-2.28,9.12c-1.14,5.32-3.8,7.6-9.13,7.6-23.19-1.52-55.13-2.66-80.22,0-2.66,0-7.6-.76-6.08-7.6l2.28-9.12c1.14-5.32,3.8-7.6,9.13-7.6,14.45,0,11.41-12.17,9.89-30.04l-1.14-14.83c-.38-5.32-2.66-7.6-7.99-7.6h-51.71c-5.32,0-8.75,1.9-10.65,6.84l-9.89,21.67c-6.46,15.59-3.8,23.95,12.93,23.95,5.32,0,7.22,2.28,6.08,7.6l-2.28,9.12c-1.14,5.32-3.8,7.6-9.13,7.6-27.38-2.66-48.67-2.66-76.42,0-2.66,0-7.6-.76-6.08-7.6l2.28-9.12c1.14-5.32,3.8-7.6,9.13-7.6,16.35,0,28.14-14.45,36.5-31.94l71.1-146.76c2.66-6.84,1.9-12.17-5.32-12.17-2.66,0-7.99-.76-6.46-7.6l2.66-9.12c1.52-5.32,3.42-7.6,8.74-7.6,17.87,1.52,51.33,1.14,59.31,0,5.32-.76,7.98,2.28,8.74,7.6,3.8,35.36,6.08,70.72,10.27,106.08ZM1222.54,362.61l-4.56-60.83-2.66-23.95-39.92,85.55c-2.28,4.94-1.14,6.84,4.18,6.84h35.74c5.32,0,7.6-2.28,7.22-7.6Z"/>
      <path class="cls-1" d="M1470.44,472.49c-5.32,0-8.75-1.9-10.65-6.84-1.14-4.56-39.92-123.95-66.92-183.64,0,2.28-.38,4.56-.76,6.84-6.46,27.37-19.01,103.42-22.81,130.79-2.28,17.11-2.66,30.04,21.67,30.04,5.32,0,7.22,2.28,6.46,7.6l-1.9,9.12c-.76,5.32-3.42,7.6-8.75,7.6-28.13-2.66-56.27-2.66-85.17,0-2.66,0-7.6-.76-6.46-7.6l1.9-9.12c.76-5.32,3.42-7.6,8.74-7.6,19.01,0,28.52-12.55,32.32-30.04,6.08-27.38,19.01-103.42,22.81-130.79,2.28-17.49,1.9-30.04-21.67-30.04-2.66,0-7.6-.76-6.46-7.6l1.9-9.12c.76-5.32,3.42-7.6,8.74-7.6,10.27,1.14,50.57,3.42,77.94,0,7.6,0,9.5,1.9,11.79,6.46l54.75,149.8c5.7-30.42,14.45-82.51,17.11-101.9,2.66-17.49,1.9-30.04-21.67-30.04-2.66,0-7.6-.76-6.46-7.6l1.9-9.12c.76-5.32,3.42-7.6,8.75-7.6,26.99,2.66,55.13,2.66,85.17,0,5.32-.38,7.22,2.28,6.46,7.6l-1.9,9.12c-.76,5.32-3.42,7.6-8.74,7.6-19.39,0-28.9,12.55-32.32,30.04-11.79,50.19-23.57,126.99-30.04,176.04-1.14,7.98-5.32,7.22-35.74,7.6Z"/>
      <path class="cls-1" d="M1714.91,348.16l9.13,76.42c2.28,17.87,9.13,25.09,20.53,25.09,5.32,0,7.22,2.28,6.08,7.6l-2.28,9.12c-1.14,5.32-3.8,7.6-9.13,7.6-23.19-1.52-55.13-2.66-80.22,0-2.66,0-7.6-.76-6.08-7.6l2.28-9.12c1.14-5.32,3.8-7.6,9.13-7.6,14.45,0,11.41-12.17,9.89-30.04l-1.14-14.83c-.38-5.32-2.66-7.6-7.99-7.6h-51.71c-5.32,0-8.75,1.9-10.65,6.84l-9.89,21.67c-6.46,15.59-3.8,23.95,12.93,23.95,5.32,0,7.22,2.28,6.08,7.6l-2.28,9.12c-1.14,5.32-3.8,7.6-9.13,7.6-27.38-2.66-48.67-2.66-76.42,0-2.66,0-7.6-.76-6.08-7.6l2.28-9.12c1.14-5.32,3.8-7.6,9.13-7.6,16.35,0,28.14-14.45,36.5-31.94l71.1-146.76c2.66-6.84,1.9-12.17-5.32-12.17-2.66,0-7.99-.76-6.46-7.6l2.66-9.12c1.52-5.32,3.42-7.6,8.74-7.6,17.87,1.52,51.33,1.14,59.31,0,5.32-.76,7.98,2.28,8.74,7.6,3.8,35.36,6.08,70.72,10.27,106.08ZM1670.43,362.61l-4.56-60.83-2.66-23.95-39.92,85.55c-2.28,4.94-1.14,6.84,4.18,6.84h35.74c5.32,0,7.6-2.28,7.22-7.6Z"/>
    </g>
    <g>
      <path class="cls-3" d="M280.59,188.14c-47.53-25.09-84.41-61.21-133.83-61.21-56.65,0-101.13,47.15-101.13,97.71,0,33.08,19.39,55.51,45.24,55.51,21.67,0,33.46-15.97,33.46-30.04,0-4.94-1.52-9.5-5.32-11.79,5.7-7.22,13.31-10.65,20.53-10.65,11.79,0,22.43,8.75,22.43,25.09,0,30.8-38.02,47.53-72.24,47.53-45.63,0-89.73-29.66-89.73-82.89,0-72.24,82.13-114.06,158.93-114.06,109.12,0,151.32,84.79,236.87,84.79,40.3,0,50.57-19.01,50.57-33.84,0-12.55-7.22-20.53-15.59-20.53-1.9,0-3.42.38-4.94.76.76-16.35,13.31-28.9,30.04-28.9,11.41,0,31.94,6.08,31.94,30.8,0,39.92-52.09,75.28-117.86,75.28-28.52,0-52.47-6.46-74.14-15.97-3.8,18.63-19.39,107.6-23.95,132.31-4.18,24.71-10.65,66.16-14.07,90.49-2.66,17.11-2.66,30.04,12.55,30.04,5.32,0,7.22,2.28,6.46,7.6l-1.9,9.12c-.76,5.32-3.42,7.6-8.75,7.6-28.13-2.66-56.27-2.66-85.17,0-2.66,0-7.6-.76-6.46-7.6l1.9-9.12c.76-5.32,3.42-7.6,8.74-7.6,14.45,0,19.77-12.55,23.19-30.04,6.84-33.84,12.17-66.16,16.35-90.49,4.56-25.09,19.01-115.58,21.29-133.07.76-5.32,3.42-7.98,8.75-7.6,8.36.76,17.11,1.14,25.85.76Z"/>
      <path class="cls-3" d="M449.03,465.31l1.9-9.12c.76-5.32,3.42-7.6,8.75-7.6,14.45,0,19.39-12.55,23.19-30.04l6.84-34.98c1.14-5.32-.76-7.6-6.08-7.6h-87.07c-5.32,0-7.98,2.28-8.75,7.6-1.52,8.36-4.56,26.23-5.7,34.98-2.28,17.11-2.66,30.04,12.55,30.04,5.32,0,7.22,2.28,6.46,7.6l-1.9,9.12c-.76,5.32-3.42,7.6-8.75,7.6-28.13-2.66-56.27-2.66-85.17,0-2.66,0-7.6-.76-6.46-7.6l1.9-9.12c.76-5.32,3.42-7.6,8.75-7.6,14.45,0,19.39-12.55,23.19-30.04,6.08-27.38,19.39-103.42,23.19-130.79,2.28-17.49,1.9-30.04-12.55-30.04-2.66,0-7.6-.76-6.46-7.6l1.9-9.12c.76-5.32,3.42-7.6,8.75-7.6,26.99,2.66,55.13,2.66,85.17,0,5.32-.38,7.22,2.28,6.46,7.6l-1.9,9.12c-.76,5.32-3.42,7.6-8.75,7.6-14.83,0-19.39,12.55-23.19,30.04-3.04,13.31-6.84,33.08-9.89,50.57-1.14,5.32.76,7.6,6.08,7.6h87.45c5.32,0,7.98-2.28,8.74-7.6,3.04-17.49,6.46-37.26,8.36-50.57,2.28-17.49,1.9-30.04-12.55-30.04-2.66,0-7.6-.76-6.46-7.6l1.9-9.12c.76-5.32,3.42-7.6,8.74-7.6,27,2.66,55.13,2.66,85.17,0,5.32-.38,7.22,2.28,6.46,7.6l-1.9,9.12c-.76,5.32-3.42,7.6-8.74,7.6-14.83,0-19.39,12.55-23.19,30.04-6.08,27.37-19.39,103.42-23.19,130.79-2.28,17.11-2.66,30.04,12.55,30.04,5.32,0,7.22,2.28,6.46,7.6l-1.9,9.12c-.76,5.32-3.42,7.6-8.75,7.6-28.13-2.66-56.27-2.66-85.17,0-2.66,0-7.6-.76-6.46-7.6Z"/>
      <path class="cls-3" d="M568.03,465.31l1.9-9.12c.76-5.32,3.42-7.6,8.75-7.6,14.45,0,19.39-12.55,23.19-30.04,6.08-27.38,19.39-103.42,23.19-130.79,2.28-17.49,1.9-30.04-12.55-30.04-2.66,0-7.6-.76-6.46-7.6l1.9-9.12c.76-5.32,3.42-7.6,8.75-7.6,26.23,2.66,54.37,2.66,83.65,0,5.32-.38,7.22,2.28,6.46,7.6l-1.9,9.12c-.76,5.32-3.42,7.6-8.75,7.6-14.83,0-19.39,12.55-23.19,30.04-6.08,27.37-19.39,103.42-23.19,130.79-2.28,17.11-2.66,30.04,12.55,30.04,5.32,0,7.22,2.28,6.46,7.6l-1.9,9.12c-.76,5.32-3.42,7.6-8.74,7.6-27.38-2.66-55.51-2.66-83.65,0-2.66,0-7.6-.76-6.46-7.6Z"/>
      <path class="cls-3" d="M742.93,287.76c2.28-17.49,1.9-30.04-12.55-30.04-2.66,0-7.6-.76-6.46-7.6l1.9-9.12c.76-5.32,3.42-7.6,8.75-7.6,26.99,2.66,55.13,2.66,85.17,0,5.32-.38,7.22,2.28,6.46,7.6l-1.9,9.12c-.76,5.32-3.42,7.6-8.75,7.6-14.83,0-19.39,12.55-23.19,30.04-4.94,21.67-15.97,84.03-20.15,111.78l-2.66,19.01c-2.28,17.11-2.28,30.04,25.85,30.04h4.94c25.85,0,52.47-24.71,65.78-52.85,4.18-8.74,28.9-8.36,25.47.38l-28.9,71.1c-1.9,4.94-5.7,6.84-11.03,6.84-51.71-2.28-106.84-2.66-159.31,0-2.66,0-7.6-.76-6.46-7.6l2.28-10.27c.76-5.32,3.42-7.6,8.74-7.6,14.45,0,19.77-12.55,23.19-30.04l4.18-19.01c5.7-27.76,15.59-90.11,18.63-111.78Z"/>
      <path class="cls-3" d="M935.31,287.76c2.28-17.49,1.9-30.04-12.55-30.04-2.66,0-7.6-.76-6.46-7.6l1.9-9.12c.76-5.32,3.42-7.6,8.74-7.6,26.99,2.66,55.13,2.66,85.17,0,5.32-.38,7.22,2.28,6.46,7.6l-1.9,9.12c-.76,5.32-3.42,7.6-8.74,7.6-14.83,0-19.39,12.55-23.19,30.04-4.94,21.67-15.97,84.03-20.15,111.78l-2.66,19.01c-2.28,17.11-2.28,30.04,25.85,30.04h4.94c25.85,0,52.47-24.71,65.78-52.85,4.18-8.74,28.9-8.36,25.47.38l-28.9,71.1c-1.9,4.94-5.7,6.84-11.03,6.84-51.71-2.28-106.84-2.66-159.31,0-2.66,0-7.6-.76-6.46-7.6l2.28-10.27c.76-5.32,3.42-7.6,8.75-7.6,14.45,0,19.77-12.55,23.19-30.04l4.18-19.01c5.7-27.76,15.59-90.11,18.63-111.78Z"/>
      <path class="cls-3" d="M1253.54,347.07l9.13,76.42c2.28,17.87,9.13,25.09,20.53,25.09,5.32,0,7.22,2.28,6.08,7.6l-2.28,9.12c-1.14,5.32-3.8,7.6-9.13,7.6-23.19-1.52-55.13-2.66-80.22,0-2.66,0-7.6-.76-6.08-7.6l2.28-9.12c1.14-5.32,3.8-7.6,9.13-7.6,14.45,0,11.41-12.17,9.89-30.04l-1.14-14.83c-.38-5.32-2.66-7.6-7.99-7.6h-51.71c-5.32,0-8.75,1.9-10.65,6.84l-9.89,21.67c-6.46,15.59-3.8,23.95,12.93,23.95,5.32,0,7.22,2.28,6.08,7.6l-2.28,9.12c-1.14,5.32-3.8,7.6-9.13,7.6-27.38-2.66-48.67-2.66-76.42,0-2.66,0-7.6-.76-6.08-7.6l2.28-9.12c1.14-5.32,3.8-7.6,9.13-7.6,16.35,0,28.14-14.45,36.5-31.94l71.1-146.76c2.66-6.84,1.9-12.17-5.32-12.17-2.66,0-7.99-.76-6.46-7.6l2.66-9.12c1.52-5.32,3.42-7.6,8.74-7.6,17.87,1.52,51.33,1.14,59.31,0,5.32-.76,7.98,2.28,8.74,7.6,3.8,35.36,6.08,70.72,10.27,106.08ZM1209.06,361.52l-4.56-60.83-2.66-23.95-39.92,85.55c-2.28,4.94-1.14,6.84,4.18,6.84h35.74c5.32,0,7.6-2.28,7.22-7.6Z"/>
      <path class="cls-3" d="M1456.95,471.4c-5.32,0-8.75-1.9-10.65-6.84-1.14-4.56-39.92-123.95-66.92-183.64,0,2.28-.38,4.56-.76,6.84-6.46,27.37-19.01,103.42-22.81,130.79-2.28,17.11-2.66,30.04,21.67,30.04,5.32,0,7.22,2.28,6.46,7.6l-1.9,9.12c-.76,5.32-3.42,7.6-8.75,7.6-28.13-2.66-56.27-2.66-85.17,0-2.66,0-7.6-.76-6.46-7.6l1.9-9.12c.76-5.32,3.42-7.6,8.74-7.6,19.01,0,28.52-12.55,32.32-30.04,6.08-27.38,19.01-103.42,22.81-130.79,2.28-17.49,1.9-30.04-21.67-30.04-2.66,0-7.6-.76-6.46-7.6l1.9-9.12c.76-5.32,3.42-7.6,8.74-7.6,10.27,1.14,50.57,3.42,77.94,0,7.6,0,9.5,1.9,11.79,6.46l54.75,149.8c5.7-30.42,14.45-82.51,17.11-101.9,2.66-17.49,1.9-30.04-21.67-30.04-2.66,0-7.6-.76-6.46-7.6l1.9-9.12c.76-5.32,3.42-7.6,8.75-7.6,26.99,2.66,55.13,2.66,85.17,0,5.32-.38,7.22,2.28,6.46,7.6l-1.9,9.12c-.76,5.32-3.42,7.6-8.74,7.6-19.39,0-28.9,12.55-32.32,30.04-11.79,50.19-23.57,126.99-30.04,176.04-1.14,7.98-5.32,7.22-35.74,7.6Z"/>
      <path class="cls-3" d="M1701.43,347.07l9.13,76.42c2.28,17.87,9.13,25.09,20.53,25.09,5.32,0,7.22,2.28,6.08,7.6l-2.28,9.12c-1.14,5.32-3.8,7.6-9.13,7.6-23.19-1.52-55.13-2.66-80.22,0-2.66,0-7.6-.76-6.08-7.6l2.28-9.12c1.14-5.32,3.8-7.6,9.13-7.6,14.45,0,11.41-12.17,9.89-30.04l-1.14-14.83c-.38-5.32-2.66-7.6-7.99-7.6h-51.71c-5.32,0-8.75,1.9-10.65,6.84l-9.89,21.67c-6.46,15.59-3.8,23.95,12.93,23.95,5.32,0,7.22,2.28,6.08,7.6l-2.28,9.12c-1.14,5.32-3.8,7.6-9.13,7.6-27.38-2.66-48.67-2.66-76.42,0-2.66,0-7.6-.76-6.08-7.6l2.28-9.12c1.14-5.32,3.8-7.6,9.13-7.6,16.35,0,28.14-14.45,36.5-31.94l71.1-146.76c2.66-6.84,1.9-12.17-5.32-12.17-2.66,0-7.99-.76-6.46-7.6l2.66-9.12c1.52-5.32,3.42-7.6,8.74-7.6,17.87,1.52,51.33,1.14,59.31,0,5.32-.76,7.98,2.28,8.74,7.6,3.8,35.36,6.08,70.72,10.27,106.08ZM1656.94,361.52l-4.56-60.83-2.66-23.95-39.92,85.55c-2.28,4.94-1.14,6.84,4.18,6.84h35.74c5.32,0,7.6-2.28,7.22-7.6Z"/>
    </g>
  </g>
  <path class="cls-2" d="M1127.61,4.28s-85.12,75.29-1.09,166.41c9.28-7.64,81.3-76.66,1.09-166.41Z"/>
  <path class="cls-2" d="M1215.71,29.65s-111.88,19.89-87.67,141.45c11.9-1.68,109.34-23.05,87.67-141.45Z"/>
  <path class="cls-2" d="M1272.17,87.82s-108.23-34.64-143.56,84.17c11.31,4.06,107.45,30.66,143.56-84.17Z"/>
  <path class="cls-2" d="M1292.76,175.34s-74.37-85.92-166.39-2.89c7.54,9.36,75.78,82.12,166.39,2.89Z"/>
  <path class="cls-2" d="M1036.8,29.73s111.88,19.89,87.67,141.45c-11.9-1.68-109.34-23.05-87.67-141.45Z"/>
  <path class="cls-2" d="M980.81,88.03s108.23-34.64,143.56,84.17c-11.31,4.06-107.45,30.66-143.56-84.17Z"/>
  <path class="cls-2" d="M959.55,175.29s74.37-85.92,166.39-2.89c-7.54,9.36-75.78,82.12-166.39,2.89Z"/>
  <line class="cls-2" x1="500.67" y1="192.76" x2="982.23" y2="193.05"/>
  <line class="cls-2" x1="1268.67" y1="192.99" x2="1743.19" y2="193.5"/>
  <line class="cls-2" x1="172.49" y1="510.09" x2="1748.64" y2="510.09"/>
</svg>