<?xml version="1.0" encoding="UTF-8"?>
<svg id="Layer_1" data-name="Layer 1" xmlns="http://www.w3.org/2000/svg" viewBox="0 0 162.29 67">
  <defs>
    <style>
      .cls-1 {
        isolation: isolate;
      }

      .cls-2 {
        fill: #fff;
      }

      .cls-3 {
        fill: #352315;
      }

      .cls-4 {
        fill: #e05c2b;
      }

      .cls-5 {
        fill: none;
        stroke: #fff;
        stroke-linecap: round;
        stroke-miterlimit: 10;
        stroke-width: .56px;
      }
    </style>
  </defs>
  <path class="cls-4" d="M78.96,65.68l-1.15-.82s0-.55,1.15-.54c1.15-.54,10.35.03,12.65.04,16.67.06,33.92.11,51.17.17,17.25.06,9.77.03,14.37.05,4.6.02,1.72,1.64,1.14,1.64l-79.34-.26v-.27Z"/>
  <g class="cls-1">
    <path class="cls-4" d="M76.51,39c.51,0,.73.1,1.24.15.22.03.58.03.98.03.53,0,1.12,0,1.43-.03.66,0,1.22.05,1.83.05.44-.02.64-.12,1.14-.17.2-.03.46-.05.71-.05.32,0,.61.05.61.17,0,.24-.51.53-.68.66-.27.22-.49.46-.83.46-.07,0-.17-.02-.27-.05-.51-.15-.8-.05-1.12-.12-.17-.05-.34-.15-.46-.15-.1,0-.17.05-.17.44,0,.44.05,1.07.05,1.63,0,.66.19,1.75.19,2.29,0,.41.07.53.07.88,0,.73-.07,1.36-.07,1.99,0,.34-.1.93-.1,1.75s.12,1.58.12,2.22c0,.49.07.88.07,1.22,0,.78-.19,1.46-.19,2.14,0,.15,0,.29.02.42.07.61.29.63.37,1.1,0,.46-.34.53-.71.85-.32.27-.85.56-1.22.56-.07,0-.15-.03-.22-.05-.27-.12-.37-.39-.37-.75,0-.15.03-.29.05-.46.05-.27.05-.69.05-1.07s0-.75.05-.97c.07-.34.17-.58.17-.8,0-.53-.17-1.07-.22-1.56,0-.58.17-1.7.17-2.36,0-.12,0-.24-.03-.34-.1-.56-.12-1.51-.17-1.92-.02-.15-.02-.37-.02-.58,0-1.54-.03-2.24-.03-3.12,0-.34-.07-.97-.07-1.51v-.37c.03-.47.19-.93.19-1.34,0-.15-.1-.25-.34-.25-.53.03-.51.2-1.34.2h-.88c-.34-.02-.92.02-.92-.46.02-.49.39-.71.9-.71Z"/>
    <path class="cls-4" d="M93.74,39.34c0,.56.29,1.05.29,1.7,0,.29.03.48.03.68,0,.34-.15.68-.15,1.07,0,.44.05,1.37.05,2.19,0,.51,0,1,.03,1.22.07.56.15.83.15,1.34,0,.44-.07.44-.07.64,0,.51.07.83.07.88,0,.05-.07,1.36-.07,2.12,0,.51.02,1.29.02,1.9,0,.29,0,.56-.02.68-.05.22-.05.42-.05.61,0,.34.05.68.05,1.68,0,.12,0,.22-.03.34-.05.24-.05.61-.15.78s-.63.53-.78.64c-.12.07-.34.14-.51.14-.07,0-.24-.07-.27-.1-.1-.12-.22-.27-.22-.48,0-.2.12-.37.12-.61,0-.19-.12-.34-.15-.56,0-.07.03-.53.03-1.02s-.03-1.02-.05-1.32c-.05-.29-.07-.58-.07-.8,0-.2.03-.32.07-.39.05-.05.07-.27.07-.46,0-.24-.05-.49-.19-.49-.15-.07-.37-.14-.64-.14-.41.02-.95.07-1,.07-.12,0-.17.1-.39.1-.61,0-.97,0-1.24.07-.22.05-.73.05-.73.39-.07.24-.15.51-.15.8,0,.24.03.39.03.51,0,.24-.15.44-.15.7,0,.2.05.37.05.71,0,.44-.05,1-.07,1.1-.03.15-.15.53-.32.61-.17.07-.1.27-.22.48-.12.22-.24.39-.44.39s-.39-.27-.51-.44c-.12-.17-.24-.49-.27-.93-.03-.29-.05-.68-.05-.95,0-.19.07-.34.07-.58,0-.17-.02-.37-.02-.49,0-.17-.03-.66-.03-1.17.03-.17.07-.32.07-.46,0-.1-.03-.2-.1-.24-.14-.12-.19-.34-.19-.56,0-.24.07-.51.15-.7.05-.15.03-.8.05-1.15,0-.97.07-1.92.07-2.94,0-.22,0-.71.03-1.12.03-.41.34-2.46.66-3.55.17-.56.61-1,.83-1.22.15-.15.37-.29.39-.51.02-.19.73-.68,1.05-.85.32-.17.63-.44.83-.46.19-.03.58-.2.9-.25.32-.05.95-.05,1.27-.07.32-.02,1.17-.22,1.34-.22.37,0,.53.34.53.71ZM91.11,39.75c-.37,0-.87.07-1.12.15-.34.1-.66.42-.8.69-.15.27-.41.63-.41.8s-.29.73-.41,1.12c-.12.39-.1.71-.12,1.07,0,.46.02.66.02.88,0,.27-.24.9-.24,1.43v.78c0,.95.03,2.33.05,2.68.05.46,0,1.22.07,1.43.05.17.1.17.29.17h.44c.66,0,1.29-.07,2.12-.07.22,0,.41,0,.58.03.27,0,.34-.25.37-.47,0-.12.02-.43.02-.75s-.02-.61-.02-.73c0-.1-.03-.24-.03-.43,0-.27.03-.56.05-.73,0-.44-.07-.8-.12-1.17-.05-.34-.05-1.27-.1-1.9,0-.61.17-1.22.17-1.85,0-.29-.1-.56-.1-.92,0-.2.03-.42.03-.85s0-1.12-.37-1.29c-.07-.02-.22-.05-.37-.05Z"/>
    <path class="cls-4" d="M98.36,39.17c.22-.17.58-.32.75-.32.29,0,.58.75.61.97.05.32.22,1,.22,1.46,0,1.22,0,1.56-.03,1.85-.05.53-.17,1.07-.17,1.46,0,.7-.07,1-.07,1.34,0,.37.07.88.07,1.6,0,.22,0,.47-.02.71-.1,1.32-.19,2.33-.27,2.95-.07.53-.15,1.85-.15,2.21.02.25.02,1.12.02,1.51,0,.19-.02.39-.02.56,0,.2.02.34.15.42.22.12.39.1.95.22s1.17.05,1.48.12c.12.02.27.05.41.05.2,0,.39-.02.54-.12.27-.15.71-.27,1.05-.27s.46.12.53.44c0,.05.03.07.03.12,0,.25-.19.37-.53.49-.39.15-.78.07-1.34.2-.15.02-.27.05-.39.05-.32,0-.61-.07-.97-.07-.34,0-.46.03-.58.03-.39,0-.75-.05-1.39-.05-.24.02-.46.05-.66.05-.15,0-.27,0-.37-.05-.29-.12-.9-.07-.9-.56,0-.32.03-.87.03-1.34,0-.24,0-.43-.03-.61,0-.1-.03-.24-.03-.39,0-.49.05-1.14.1-1.65,0-.07.03-.12.03-.2.05-.56.22-.83.22-1.19,0-.22-.02-.32-.02-.42,0-.27.05-.58.05-.85,0-.1-.03-.17-.03-.53,0-.64.07-1.9.07-2.65,0-.2-.02-.34-.02-.44,0-.12-.03-.24-.03-.37,0-.56.1-1.19.19-1.24.03,0,.05-.02.05-.05,0-.1-.15-.32-.15-.49,0-.29.1-.61.1-.9,0-.07,0-.17-.02-.24-.07-.34-.1-.64-.1-1.02,0-.17,0-.34.03-.53.05-.71.1-1.44.1-1.73s.27-.32.51-.51Z"/>
    <path class="cls-4" d="M107.02,40.17c.03-.39.05-.61.27-.61.44,0,.63-.05.66-.1.02-.07.32-.29.68-.32.37-.02,1.17-.05,1.48-.17.22-.1.51-.1,1.14-.1.27,0,.71-.03,1.07-.03.17,0,.34,0,.44.03.29.05.58.27.58.53s-.17.41-.42.63c-.02.03-.29.2-.44.2s-.22-.05-.24-.12c-.02-.12-.2-.15-.49-.22-.1-.02-.24-.05-.39-.05-.49,0-.88.02-1.27.02-.15,0-.27.02-.39.12-.25.19-.44.24-.44.63,0,.34.24,1.63.24,2.87,0,.2,0,.39-.02.56-.07,1.05-.1,1.44-.1,1.68.03.37.07.49.07.68s-.07.34-.07.51.07.29.07.64c0,.1-.02.19-.02.32-.02.29-.05.58-.05.83,0,.39.05.71.2.83.15.12.34.15.56.15.78,0,1,0,1.27-.02.24-.02.39-.12.73-.12.51.03.61.15.7.47.02.05.02.1.02.15,0,.19-.17.27-.61.29h-.73c-1,0-1.09,0-1.17.03-.07.02-.17.02-.49.02-.12,0-.24.02-.32.12-.17.22-.34.61-.34,1.17,0,.66.07,1.15.07,1.61v.27c-.05.46-.12,1.1-.12,1.48,0,.1.02.17.02.39,0,.17-.02.34-.02.46,0,.1.02.17.05.2.07.07.78.15,1.12.15.27,0,.58.07.88.07.12,0,.22-.02.32-.05.32-.1.64-.05.95-.29.32-.24.46-.29.66-.46.07-.05.15-.1.22-.1.12,0,.22.12.24.37.03.29.12.56.12.75,0,.07-.02.15-.05.17-.12.12-.58.22-.95.34-.15.05-.41.05-.68.05-.39,0-.85,0-1.12.05-.15.02-.29.05-.44.05-.34,0-.68-.05-1-.05-.97,0-1.17,0-1.37.05-.27.05-.43.1-.58.1-.1,0-.17,0-.25-.05-.19-.1-.15-.44-.29-.83-.02-.05-.02-.1-.02-.15,0-.24.32-.22.32-.41,0-.22-.05-.39-.12-.88-.05-.37-.12-1-.12-1.66,0-.19.03-.36.03-.56.03-.37.03-.68.03-.93,0-.29,0-.51-.05-.58-.07-.12-.32-.54-.32-.78,0-.05,0-.07.03-.1.1-.2.36-.39.36-.51,0-.44-.1-.9-.1-1.37,0-.19.02-.41.07-.61.1-.39.12-.78.12-1.82,0-.32,0-.64-.05-.9-.07-.34-.07-.88-.07-1.32v-.51c-.03-.37,0-.95-.05-1.24-.02-.22-.05-.95-.05-1.48v-.53Z"/>
    <path class="cls-4" d="M121.86,43.14c0-.1-.05-.51-.05-.95,0-.24.07-.48.07-.8,0-.34-.22-.51-.29-.87-.1-.44-.37-.83-.61-.95-.07-.03-.17-.05-.29-.05-.32,0-.78.1-1.05.22-.39.17-.85.83-1.07,1.19-.1.12-.12.29-.12.46,0,.32.1.69.1,1.1,0,.61.1.8.24,1,.15.22.1.75.22,1.09.15.34.22.29.78.66.58.37.95.85,1.73,1.59.8.73,1.41,1.22,1.78,2.07.29.71.48,1.75.48,2.41,0,.53-.1,1.12-.22,1.7-.12.48-.29.88-.37,1.17-.05.29-.29.7-.58,1.12-.29.41-.39.44-.76.73-.34.29-1.36.83-1.8,1.12-.22.15-.46.17-.7.17-.27,0-.51-.02-.76-.05-.46-.02-1.02-.19-1.38-.34-.34-.15-.9-.8-1.02-1.1-.15-.29-.32-1.19-.34-1.68,0-.41-.17-1.29-.17-1.85,0-.12,0-.22.02-.29.07-.36.39-.75.88-.75.29,0,.75.25.75.61,0,.27-.24.54-.34.85-.07.27-.15.44-.15.73,0,.15.02.32.07.53.15.66.22,1.14.48,1.41.29.27.66.71,1.22.93.17.07.37.1.53.1.37,0,.71-.12.9-.29.32-.24.75-.68.8-1,.02-.32.17-.48.27-.58.1-.1.22-.49.39-.95.07-.2.1-.46.1-.75,0-.37-.02-.76-.07-1.1,0-.05-.02-.1-.02-.24-.07-.66-.32-.93-.56-1.48-.24-.56-.66-.76-.92-1.12l-.88-1.07c-.32-.34-.97-.92-1.27-1.14-.27-.22-.83-.76-.9-.98-.1-.24-.1-.56-.32-.78-.17-.22-.44-.56-.44-1.17,0-.1,0-.19.02-.32.15-.85.24-1.65.63-2.14.42-.48.37-.7.66-1.1.27-.39.27-.51.88-.88.58-.36,1.17-.68,1.58-.68s1.15.15,1.59.32c.44.17,1.07.78,1.17,1.02.12.22.24.64.24,1.05,0,.61.12,1,.12,1.22-.02.24-.21,1.19-.53,1.17-.32-.03-.73-.12-.73-.27Z"/>
  </g>
  <g class="cls-1">
    <path class="cls-4" d="M76.14,12.08c.51,0,.73.1,1.24.15.22.03.58.03.98.03.53,0,1.12,0,1.43-.03.66,0,1.22.05,1.83.05.44-.02.64-.12,1.14-.17.2-.03.46-.05.71-.05.32,0,.61.05.61.17,0,.24-.51.53-.68.66-.27.22-.49.46-.83.46-.07,0-.17-.02-.27-.05-.51-.15-.8-.05-1.12-.12-.17-.05-.34-.15-.46-.15-.1,0-.17.05-.17.44,0,.44.05,1.07.05,1.63,0,.66.19,1.75.19,2.29,0,.41.07.53.07.88,0,.73-.07,1.36-.07,1.99,0,.34-.1.93-.1,1.75s.12,1.58.12,2.22c0,.49.07.88.07,1.22,0,.78-.19,1.46-.19,2.14,0,.15,0,.29.02.42.07.61.29.63.37,1.1,0,.46-.34.53-.71.85-.32.27-.85.56-1.22.56-.07,0-.15-.03-.22-.05-.27-.12-.37-.39-.37-.75,0-.15.03-.29.05-.46.05-.27.05-.69.05-1.07s0-.75.05-.97c.07-.34.17-.58.17-.8,0-.53-.17-1.07-.22-1.56,0-.58.17-1.7.17-2.36,0-.12,0-.24-.03-.34-.1-.56-.12-1.51-.17-1.92-.02-.15-.02-.37-.02-.58,0-1.54-.03-2.24-.03-3.12,0-.34-.07-.97-.07-1.51v-.37c.03-.47.19-.93.19-1.34,0-.15-.1-.25-.34-.25-.53.03-.51.2-1.34.2h-.88c-.34-.02-.92.02-.92-.46.02-.49.39-.71.9-.71Z"/>
    <path class="cls-4" d="M93.37,12.42c0,.56.29,1.05.29,1.7,0,.29.03.48.03.68,0,.34-.15.68-.15,1.07,0,.44.05,1.37.05,2.19,0,.51,0,1,.03,1.22.07.56.15.83.15,1.34,0,.44-.07.44-.07.64,0,.51.07.83.07.88,0,.05-.07,1.36-.07,2.12,0,.51.02,1.29.02,1.9,0,.29,0,.56-.02.68-.05.22-.05.42-.05.61,0,.34.05.68.05,1.68,0,.12,0,.22-.03.34-.05.24-.05.61-.15.78s-.63.53-.78.64c-.12.07-.34.14-.51.14-.07,0-.24-.07-.27-.1-.1-.12-.22-.27-.22-.48,0-.2.12-.37.12-.61,0-.19-.12-.34-.15-.56,0-.07.03-.53.03-1.02s-.03-1.02-.05-1.32c-.05-.29-.07-.58-.07-.8,0-.2.03-.32.07-.39.05-.05.07-.27.07-.46,0-.24-.05-.49-.19-.49-.15-.07-.37-.14-.64-.14-.41.02-.95.07-1,.07-.12,0-.17.1-.39.1-.61,0-.97,0-1.24.07-.22.05-.73.05-.73.39-.07.24-.15.51-.15.8,0,.24.03.39.03.51,0,.24-.15.44-.15.7,0,.2.05.37.05.71,0,.44-.05,1-.07,1.1-.03.15-.15.53-.32.61-.17.07-.1.27-.22.48-.12.22-.24.39-.44.39s-.39-.27-.51-.44c-.12-.17-.24-.49-.27-.93-.03-.29-.05-.68-.05-.95,0-.19.07-.34.07-.58,0-.17-.02-.37-.02-.49,0-.17-.03-.66-.03-1.17.03-.17.07-.32.07-.46,0-.1-.03-.2-.1-.24-.14-.12-.19-.34-.19-.56,0-.24.07-.51.15-.7.05-.15.03-.8.05-1.15,0-.97.07-1.92.07-2.94,0-.22,0-.71.03-1.12.03-.41.34-2.46.66-3.55.17-.56.61-1,.83-1.22.15-.15.37-.29.39-.51.02-.19.73-.68,1.05-.85.32-.17.63-.44.83-.46.19-.03.58-.2.9-.25.32-.05.95-.05,1.27-.07.32-.02,1.17-.22,1.34-.22.37,0,.53.34.53.71ZM90.74,12.83c-.37,0-.87.07-1.12.15-.34.1-.66.42-.8.69-.15.27-.41.63-.41.8s-.29.73-.41,1.12c-.12.39-.1.71-.12,1.07,0,.46.02.66.02.88,0,.27-.24.9-.24,1.43v.78c0,.95.03,2.33.05,2.68.05.46,0,1.22.07,1.43.05.17.1.17.29.17h.44c.66,0,1.29-.07,2.12-.07.22,0,.41,0,.58.03.27,0,.34-.25.37-.47,0-.12.02-.43.02-.75s-.02-.61-.02-.73c0-.1-.03-.24-.03-.43,0-.27.03-.56.05-.73,0-.44-.07-.8-.12-1.17-.05-.34-.05-1.27-.1-1.9,0-.61.17-1.22.17-1.85,0-.29-.1-.56-.1-.92,0-.2.03-.42.03-.85s0-1.12-.37-1.29c-.07-.02-.22-.05-.37-.05Z"/>
    <path class="cls-4" d="M97.98,11.86c.34,0,1.05.42,1.39.83.32.39.61,1.12.85,1.51.24.39.78,1.05.83,1.38.05.34.27.85.34,1.07.39,1.19,2.39,4.53,2.48,5.26s.22.58.32.85c.1.27.17.53.22.85.05.32.44.92.56,1.29.12.37.44,1.02.61,1.27.17.24.32.71.37.95.05.2.19.46.27.46.03,0,.05-.02.05-.1.05-.27.12-1.02.12-1.63s.02-1.34.02-1.73c0-.32.17-.71.17-1.02,0-.07,0-.12-.03-.2-.07-.24-.07-.53-.07-.83v-.44c0-.34.15-.58.15-1.02,0-.1,0-.19-.03-.32-.02-.19-.05-.41-.05-.66,0-.66.07-1.41.1-1.85,0-.56-.15-1.95-.17-2.41-.03-.24-.03-.58-.03-.9s0-.61.03-.75c.03-.29.05-.95.24-1.37.19-.41.05-.7.41-.85.05-.03.07-.03.12-.03.29,0,.51.47.56.88,0,.53-.12.95-.12,1.51.03.58.05.9.05,1.31,0,.24,0,.51-.05.83-.05.29-.05.54-.05.78,0,.51.05.95.07,1.29v.39c0,.29,0,.51-.03.85-.03.49-.03,3.36-.12,4.16-.1.8,0,2.56-.12,3.17-.1.44-.1.78-.1,1.31,0,.22.1.56.1.9-.05.56-.17,1.19-.29,1.48-.1.27-.24.44-.51.44-.17,0-.24-.03-.34-.03-.37,0-.68,0-.93-.17-.34-.27-.51-.73-.73-1.12s-.85-2.05-1.07-2.51-1.02-1.97-1.05-2.29c-.03-.32,0-.46-.17-.66-.17-.19-.27-.19-.39-.63-.12-.44-.71-1.48-.95-1.95-.24-.47-.27-1.15-.53-1.41-.27-.27-.41-.73-.46-.95-.05-.2-.34-.64-.34-1,0-.24-.17-.37-.34-.73-.17-.39-.15-.53-.37-.83-.15-.19-.15-.68-.41-.68-.17,0-.37.24-.37.95.03,1.14.03,1.58.03,2.14s.07.97.1,1.41c0,.56-.05.83-.12,1.17-.03.07-.03.14-.03.21,0,.22.07.39.07.69-.05.61-.27,1.22-.27,1.68,0,.12.03.22.05.32.12.41.22,1.19.22,1.7v.39c0,.39.12.92.12,1.22,0,.44,0,1.1-.12,1.44-.07.22.03.53-.34.87-.37.34-.32.8-.51.8-.24,0-.36-.19-.39-1.07,0-.75.12-.95.12-1.27,0-.22-.05-.37-.05-.51,0-.2.02-.39.02-.56,0-.12,0-.22-.05-.32-.05-.15-.05-.24-.05-1.14-.03-.17-.03-.37-.03-.51,0-.39.05-.71.07-.97.05-.39.1-.58.12-.88,0-.1.03-.25.03-.46,0-.49-.05-1.17-.12-1.68-.05-.29-.07-.64-.07-.97,0-.49.05-.97.07-1.29.05-.53.1-.9.19-1.05.05-.1.15-.17.15-.29,0-.07-.03-.17-.12-.32-.24-.37-.29-.58-.34-1.39,0-.53.07-1.34.07-1.95-.03-.88-.12-1.07-.12-1.32,0-.1.03-.19.05-.32.1-.44.73-.7,1.02-.73Z"/>
    <path class="cls-4" d="M114.21,30.26c-.42.05-.85.34-1.36.34-.68-.05-1.14-.02-1.36-.1s-.39-.32-.44-.88c-.02-.29-.07-1.05-.07-1.75,0-.63.05-1.22.15-1.36.07-.07.1-.22.1-.37,0-.37-.12-.78-.12-.95.02-.15.1-.46.1-.78,0-.17-.05-.32-.05-.58s.05-.54.05-.83-.03-.58-.03-.95c0-.64.03-1.41.07-1.78.03-.29.05-.68.05-1.07,0-.37-.03-.73-.03-1.36,0-.37,0-.8.03-1.12,0-.8-.03-1.24-.05-1.41-.05-.24-.05-.56-.07-1.07,0-.36.1-.83.1-1.14-.03-.1-.07-.17-.07-.29,0-.07.03-.2.07-.37.15-.44.34-.48.71-.58.22-.07.39-.1.51-.1.41,0,.46.27,1,.27.39,0,.34-.05.95-.05.68,0,1.78.05,3.46,1.46.32.27.68.39.9.61s.58,1.14.78,1.29.27,1.12.44,1.59c.12.34.17.75.17,1.63,0,.56,0,2.7-.17,3.53-.17.83-.22,1.27-.24,1.51-.03.25-.15.2-.27.47-.05.1-.05.22-.05.58,0,.1,0,.21-.05.29-.12.25-.68,1.61-1.12,2.14-.44.54-1.09,1.39-1.31,1.41-.22.03-.93.85-1.14,1-.46.27-1.17.73-1.61.78ZM116.72,26.71c.19-.29.05-.65.34-1.09s.46-1.44.49-1.92c.03-.49.03-.66.12-1.19.1-.54.22-1.73.22-3.75,0-.7-.2-1.29-.22-2.24-.03-1-.29-1.56-.51-2s-1.17-1.27-1.48-1.46c-.32-.19-.93-.22-1.27-.48-.12,0-.24-.03-.37-.03-.37,0-.71.07-.83.17-.15.12-.24.37-.24.58,0,.05.03.1.03.15.05.27.34.46.34.85,0,.32.03,1.12.03,1.73,0,1.37.02,2.1.02,2.53,0,.56-.12,1.7-.15,2.41v.34c0,.73.05,1.73.05,2.14,0,.49-.27,1.68-.27,2.1s0,.85.03,1.27v.78c0,.29,0,.61.03.9,0,.51-.05.85-.05,1.05,0,.1.03.15.12.15.19,0,.63-.05.95-.17.37-.15,1.07-.68,1.39-.9.32-.22,1.05-1.61,1.24-1.9Z"/>
    <path class="cls-4" d="M129.27,11.91c.53,0,.95.15,1.17.32.22.22.92.9,1.14,1.27.2.37.34.8.51,1.1.15.29.39.68.44,1.32.1,1.38.15,2.44.15,3.29,0,1.02-.07,1.75-.17,2.36-.17,1.12.02,2-.22,2.6s-.24.92-.42,1.7c-.17.78-.61,2.07-1.36,2.9-.73.83-.93.56-1.14.85-.27.29-.25.37-.58.54-.34.17-.61.46-1.36.46-.29,0-.85-.17-1.46-.44-.61-.24-1.05-.73-1.36-1.02-.27-.27-.46-.51-.66-1.07-.24-.68-.46-.95-.56-1.41-.07-.46-.1-1.19-.24-1.73-.12-.53-.17-.63-.22-1.24-.03-.39-.07-1.02-.07-1.56,0-.29,0-.56.07-.73l.15-.49s-.07-.46-.07-.9c0-.12.02-.22.02-.32.03-.51.22-.8.29-1.17.05-.37.29-1.34.56-2.17.24-.83.63-1.39,1.07-1.87.44-.49,1.02-1.05,1.29-1.17s.63-.32.88-.61c.22-.29,1.29-.73,1.8-.78.12-.02.25-.02.37-.02ZM128.35,13.25c-.17,0-.32-.07-.58-.07-.19,0-.39.05-.51.2-.24.24-.85,1.09-1.02,1.46-.12.37-.46,1.07-.54,1.75-.07.56-.12,1.14-.29,1.83-.2.7-.2.75-.2,1.73s.1,1.02.15,1.6c.05.64.12,1.29.32,2.05.15.75.12,1.29.29,1.75.15.46.22,1.24.29,1.46.1.22.53,1,.92,1.32.46.37.61.93,1.32.93.12,0,.24-.03.39-.07.32-.12.49-.39.7-.66.2-.27.32-.29.42-.29.07,0,.27-.56.34-.8.05-.24.58-.9.63-1.22,0-.15-.02-.39-.02-.61s.02-.44.15-.56c.22-.22.34-.25.44-1,.05-.37.05-.73.05-1.07s0-.68.05-1.05c.02-.22.05-.44.05-.66,0-.29-.03-.56-.03-.83,0-.17,0-.34.03-.51.05-.53.15-.66.15-.97,0-.07,0-.17-.03-.27-.07-.56-.17-2.09-.27-2.39-.12-.29-.25-.61-.39-1.17-.12-.51-.27-.63-.58-.88-.25-.22-.54-.75-.83-.97-.22-.17-.51-.22-.73-.22-.25,0-.42.2-.66.2Z"/>
    <path class="cls-4" d="M141.78,11.91c.53,0,.95.15,1.17.32.22.22.92.9,1.14,1.27.2.37.34.8.51,1.1.15.29.39.68.44,1.32.1,1.38.15,2.44.15,3.29,0,1.02-.07,1.75-.17,2.36-.17,1.12.02,2-.22,2.6s-.24.92-.42,1.7c-.17.78-.61,2.07-1.36,2.9-.73.83-.93.56-1.14.85-.27.29-.25.37-.58.54-.34.17-.61.46-1.37.46-.29,0-.85-.17-1.46-.44-.61-.24-1.05-.73-1.37-1.02-.27-.27-.46-.51-.66-1.07-.24-.68-.46-.95-.56-1.41-.07-.46-.1-1.19-.24-1.73-.12-.53-.17-.63-.22-1.24-.03-.39-.07-1.02-.07-1.56,0-.29,0-.56.07-.73l.15-.49s-.07-.46-.07-.9c0-.12.02-.22.02-.32.02-.51.22-.8.29-1.17.05-.37.29-1.34.56-2.17.25-.83.64-1.39,1.07-1.87.44-.49,1.02-1.05,1.29-1.17.27-.12.64-.32.88-.61.22-.29,1.29-.73,1.8-.78.12-.02.25-.02.37-.02ZM140.85,13.25c-.17,0-.32-.07-.58-.07-.2,0-.39.05-.51.2-.24.24-.85,1.09-1.02,1.46-.12.37-.46,1.07-.53,1.75-.07.56-.12,1.14-.29,1.83-.2.7-.2.75-.2,1.73s.1,1.02.15,1.6c.05.64.12,1.29.32,2.05.15.75.12,1.29.29,1.75.15.46.22,1.24.29,1.46.1.22.53,1,.92,1.32.46.37.61.93,1.32.93.12,0,.24-.03.39-.07.32-.12.49-.39.7-.66.2-.27.32-.29.42-.29.07,0,.27-.56.34-.8.05-.24.58-.9.63-1.22,0-.15-.02-.39-.02-.61s.02-.44.15-.56c.22-.22.34-.25.44-1,.05-.37.05-.73.05-1.07s0-.68.05-1.05c.02-.22.05-.44.05-.66,0-.29-.03-.56-.03-.83,0-.17,0-.34.03-.51.05-.53.15-.66.15-.97,0-.07,0-.17-.03-.27-.07-.56-.17-2.09-.27-2.39-.12-.29-.25-.61-.39-1.17-.12-.51-.27-.63-.58-.88-.25-.22-.54-.75-.83-.97-.22-.17-.51-.22-.73-.22-.25,0-.42.2-.66.2Z"/>
    <path class="cls-4" d="M148.32,11.83c.51,0,.64,0,.75.02.29.05,1,.12,1.54.12.2,0,.37,0,.48-.02.32-.07.56-.07,1-.07.17,0,.63.19,1.14.19.07,0,.15-.02.39-.02.53,0,1.14.29,1.48.44.56,0,1.58,1.63,1.63,2.14.02.19.02.41.02.61,0,.73-.1,1.41-.15,1.68-.07.34-.39,1.12-.53,1.29s-.58.75-.68,1.17c-.17.68-.61,1.27-.93,1.8-.2.34-.37.56-.73.92s-.32.56-.63.85c-.29.27-.44.39-.44.46,0,.1,1.34,1.07,1.68,1.46.34.39.71,1.27.95,1.43.25.17.61.56.85.95.24.39.7,1.02.85,1.41.05.17.17.34.17.51,0,.27-.12.51-.15.7-.03.29-.37.64-.56.64-.17,0-.64-.44-.95-.71-.8-.68-.46-.7-1-1.43-.12-.17-.64-.46-.9-.88-.27-.41-.34-.46-.69-.83-.34-.37-.48-.75-.8-1.02-.32-.27-.73-.78-.85-1.09-.07-.17-.12-.34-.12-.51,0-.12.03-.25.12-.37.22-.29.66-1.24.85-1.29.19-.05.44-.17.48-.44.05-.27.1-.73.24-.92s.76-1.43.88-1.85c.12-.42.39-.46.39-.8s.27-1.12.36-1.68c.05-.34.1-.88.1-1.29,0-.27-.03-.46-.05-.53-.07-.17-.2-1.1-.63-1.43-.58-.47-1.07-.64-1.8-.64h-.32c-.53.02-.92.27-1.36.27-.07,0-.1.1-.17.61-.05.39-.07.85-.07,1.34,0,.53.05,1.1.05,1.68,0,.85.07,1.65.07,2.43v.47c0,.73.15.97.15,1.38,0,.29.02,1,.02,1.56,0,.27,0,.51-.02.64-.05.29-.12,2.19-.12,3.14v.61c0,.39-.02.73-.02,1.05,0,.42.05.64.05.88,0,.39-.05.78-.15.93-.22.34-.78.73-1.19.73-.27,0-.42-.2-.51-.58-.12-.46-.05-.58-.2-1.12-.02-.1-.05-.22-.05-.29,0-.29.15-.44.15-.8-.02-.29-.05-.85-.05-1.32v-.46c.02-.49.15-1.19.24-1.36.02-.05.05-.17.05-.34,0-.42-.07-1.14-.07-1.73,0-.83-.03-2.36-.12-2.73s-.22-1.68-.24-2.56c0-.63.1-1.41.1-1.85,0-.27-.02-.37-.02-.49,0-.32.05-.71.05-1,0-.1-.02-.17-.02-.25-.07-.51-.46-.85-.46-1.32,0-.1,0-.19.05-.29.1-.2.27-.2.41-.2Z"/>
    <path class="cls-4" d="M160.82,12.37c.29-.17.34-.46.61-.53.03,0,.07-.02.1-.02.25,0,.49.22.58.73.12.58.17.58.17,1.22v.88c0,.46,0,.92-.1,1.27-.12.51-.24,1.12-.24,1.63,0,.68.05,1.41.07,1.63s.07,1.31.07,2.82c0,.85-.02,1.97-.02,2.6,0,.68.05.97.05,1.24,0,.15,0,.29-.05.44-.05.24-.07.41-.07.61,0,.22.02.44.02.66,0,.36-.17.75-.17.97.02.27.07.41.07.56,0,.1,0,.22-.05.34-.1.34-.51.63-.88.92-.29.22-.37.37-.48.37-.37,0-.37-.68-.37-.88v-.48c0-.64-.05-1.41-.05-1.83,0-.48.07-2.68.1-3.07,0-.22.03-.42.03-.64-.03-.7-.05-.83-.05-.97,0-.27.07-.48.07-.73,0-.32-.07-.63-.1-1.09v-.39c0-.87,0-2.53.07-2.75.02-.12.05-.34.05-.58s-.02-.53-.02-.83c0-.46.2-.8.2-1.17s-.15-.61-.15-.93c0-.42.1-.83.12-1.17.05-.51.12-.66.42-.83Z"/>
  </g>
  <g>
    <path class="cls-3" d="M5.38,50.32l-.23-.34c.23-.23.45-.34.68-.34,1.35-.23,3.83-.34,5.19-.34s.68,0,.68.11v.34l-.56.11c-.79,0-1.8.23-2.59.23h-1.92c-.56,0-.34,0-.34,0h14.77c4.51.45,9.58.68,13.53,3.27.34-1.13-.34-2.48-1.13-3.38-2.93-3.49-11.95-5.64-16.35-5.52-4.4.11-4.51.68-6.76,1.01l-.79.23c2.37.34,4.73-.23,7.1-.45s1.8-.23,2.25,0c.68.34-.23.68-.68.68-2.59.34-6.88,1.01-9.36.68-.45,0-2.37-.34-1.69-1.13s2.37-.79,2.93-1.01,2.59-.45,2.71-.68c.68-1.01-2.25-1.01-2.37-1.24-.34-.68.56-.9,1.01-1.01,1.35-.45,2.48-.56,3.83-.23s2.03,1.13,2.48.56-.34-1.35-.79-1.47c-.79-.34-1.47-.11-2.25-.23-3.72-.34-3.61-5.3.56-5.07s3.83.9,4.17-.23-1.69-1.13-2.25-1.47-.56-.68,0-.9,1.58,0,2.14-.23c4.28-.56,5.19-4.06,7.33-7.21s1.58-2.14,2.37-3.16c0-.23-1.8-2.03-2.03-2.37-2.25-2.48-4.73-4.85-6.99-7.33-.79-.56-1.8.23-2.71.34s-2.14,0-2.93-.79l-6.09-6.65c-.11-.23-.11-.56,0-.68.23-.11.56,0,.68,0,1.24,1.35,2.48,2.82,3.72,4.06s1.35,1.47,1.69,1.69.79-.34.79-.56c-1.13-1.47-2.59-2.71-3.95-4.17s-1.69-1.8-1.69-2.03c0-.45.45-.68.79-.34,1.69,1.58,3.27,3.83,5.07,5.41s.34.23.45.34c.23,0,.79-.34.79-.56l-5.64-5.97c-.23-.34.11-.9.56-.68l5.75,5.97c.23.23,1.13-.45.79-.79L12.71,1.28c-.45-.45,0-1.13.45-.79l6.88,6.99c.34.45.56,1.13.56,1.69s-.23,1.35,0,1.92l10.15,8.57c.68-1.35.79-2.71.45-4.06-.45-2.48-1.24-4.06-1.13-6.76s.45-3.95,1.13-4.28.9,1.01,1.01,1.58c1.24,3.95,4.17,6.65,6.54,9.92s1.01,1.69,1.35,2.14,0,.11.23.11l9.13-7.67c.23-.45,0-1.01-.11-1.47-.34-4.28,3.95-7.1,7.78-7.55,1.13-.11,1.69,0,1.8,1.24.45,4.06-1.58,9.58-6.43,9.13s-1.69-.56-2.25-.23-.68.56-.79.68c-2.25,2.14-4.62,4.85-6.65,7.1s-.9,1.01-.9,1.13c.56,1.13,1.24,2.25,1.8,3.38,1.13,2.25,2.14,5.97,4.17,7.44s2.71.9,4.28,1.13,1.01,0,.79.68-1.47.56-1.92.68c-1.24.45-.79,1.58.45,1.69s2.82-.56,4.4-.23c2.14.45,2.93,2.82,1.24,4.28s-2.71.34-4.06,1.01-1.13.9-.68,1.47,1.69-.34,2.25-.56c1.35-.45,3.04-.34,4.4.23s1.01.45.68,1.01c-.56.34-1.35,0-1.92.34-1.58.9,2.14,1.47,2.59,1.58.68.23,1.92.45,2.48.79s.68.79,0,1.01c-2.71.9-6.31,0-9.13-.23-2.82-.23-1.92,0-2.25-.23s0-.56.34-.68c3.04,0,5.97.79,9.02.56,0-.11-.11-.11-.23-.11-5.86-1.69-11.95-1.35-17.7.79-3.04,1.13-7.33,3.27-7.1,6.99,3.49-2.25,7.89-2.59,11.95-3.27h17.14c0-.23-.23-.23-.34-.23h-2.25c-.79,0-2.37,0-3.16-.23s-.45-.34-.23-.56.56-.11.79-.11c1.47,0,3.38.11,4.85.34s1.35.34.9.56-.34,0-.23.11c.79-.11,1.35,0,2.14,0l-2.93-1.35c-2.48,0-4.85-.34-7.33-.68-1.13-.11-2.48,0-3.61-.23s-.68-.68,0-.68h2.59c2.25.11,4.51.56,6.65.68s1.92,0,2.37,0,1.24.68,1.69.9c.79.34,2.82,1.01,3.27,1.58s.56,1.35,0,1.8-.68.34-.79.34h-6.65s.11.11.23.23c1.13.9,3.27,1.8,3.27,3.49v7.44h2.59s.34.23.45.45c0,.9-2.48.34-2.93.56-.23,1.24-.79,2.03-2.14,2.14H6.51c-1.13-.11-1.69-1.13-1.8-2.14h-2.59c-.45,0-.79-.23-.45-.68l.56-.23h2.48v-7.44c0-.45.45-1.35.79-1.58s.68-.45.9-.56c.56-.45,1.24-.9,1.8-1.47H1.32c-.34,0-1.01-.34-1.13-.68-.56-1.69,1.69-2.14,2.82-2.71s2.14-1.13,2.59-1.24.9,0,1.24,0c3.49-.23,7.1-.56,10.6-.9,1.13.68-.45.79-1.01.9-3.49.45-6.99.56-10.48.9l-2.71,1.35h2.48l-.34-.23ZM31.2,6.91c-.23,1.13-.34,2.37-.23,3.49.23,4.28,2.71,6.54,0,10.82s-3.16,3.95-4.51,6.2c-3.83,6.2-3.95,13.75,2.71,18.15,3.72,2.48,7.44,2.59,11.16.11,10.26-6.88,3.49-20.29-1.92-28.07s-4.62-5.64-6.43-8.79l-.68-1.92h-.11ZM14.62,36.45c-1.47,0-2.48,1.58-1.13,2.59s2.14.23,3.16.23,2.82.79,2.59-.23-1.58-.45-2.14-.79-.56-.68-.79-.9c-.45-.56-1.01-.9-1.8-.9h.11ZM56.45,38.93c1.58-1.47-1.13-3.49-2.82-1.8s-.56,1.01-.79,1.13c-.45.34-2.25,0-2.14.9s2.14.11,2.59.11c1.01,0,2.25.45,3.16-.34ZM20.49,41.86c-.34,0-.45.79,0,.79.79,0,.56-1.01,0-.79ZM49.23,41.97c-.34-.34-1.01,0-.68.56s1.01-.23.68-.56ZM48.44,51.33h12.51c2.59,0,5.52.34,7.89,0s.23,0,.34-.11c-.34-1.01-1.8-.45-2.59-.45h-17.59c-1.69,0-.45,0-.45.23l-.11.34ZM21.5,51.22c-6.76-.45-13.53-.23-20.29-.23-.34,0-.34.34-.45.45,0,.11.23.11.34.11,1.8.23,4.4,0,6.31,0,4.17,0,8.34-.11,12.51-.23,4.17-.11.9,0,1.47,0s.34,0,.34,0l-.23-.11ZM30.29,52.8c-2.03-.68-4.06-.79-6.2-.68s-5.75.34-8.57.45c-2.82.11-1.58,0-2.25,0s-.11.23-.11.23h-1.8c-.56,0-.34-.11-.56-.11s-.56.34-.68.34l-.34-.23-.23.23c.11,0,.23.11.45.11.79.11,2.03-.11,2.82,0,5.64-.45,11.39-.11,17.14-.34,5.75-.23.34,0,.34,0ZM58.7,52.68c-4.4-.11-8.91-.34-13.3-.68-2.03,0-4.06.11-5.97.79h11.72c3.16.23,6.2.45,9.36.45s.45,0,.45-.11l-.68-.34c-.11,0-1.24-.11-1.35,0-.23,0-.34.34-.34,0l.11-.11ZM32.89,53.81c-.56-.23-1.13-.45-1.69-.56-3.95-.34-8.23.34-12.29,0-3.27.34-6.99-.11-10.26.23s-.45,0-.68.11l-.9.68h12.29c4.06,0,.45,0,.68,0,3.72,0,7.89.23,11.5,0,.34,0,.9-.11,1.13-.23s.11,0,.11-.23h.11ZM37.06,53.92c.45.11.9.23,1.24.23,4.28.34,9.13,0,13.53,0h9.92c3.27,0,.79.23,1.13,0-.45-.45-.9-.68-1.58-.79-2.82-.23-5.97.11-8.79-.23-4.4.34-9.24-.45-13.53,0-.56,0-1.47.23-1.8.68l-.11.11ZM6.96,55.28c-1.01-.34-1.69.23-1.8,1.24.11,2.48-.23,5.19,0,7.67s.34,1.92,1.58,1.58c-.34-.34-.79-.45-.9-1.01.23-2.59-.23-5.52,0-8.12s.11-.68.23-.9c.23-.34.56-.23.79-.56l.11.11ZM37.62,55.16c-.68,0-.79.56-1.35.9-.79.45-2.25.45-2.93-.11s-.56-1.01-1.13-.56c.56,1.69,2.48,2.14,4.06,1.58s1.47-.79,1.35-1.69v-.11ZM63.1,65.87c1.24.11,1.58-.56,1.58-1.69.23-2.48-.11-5.19,0-7.78,0-.9-.79-1.69-1.69-1.13.56.23.9.56,1.01,1.13.34,2.48-.23,5.75,0,8.34,0,.56-.23.68-.68.9s-.23,0-.23.23ZM38.41,56.4h20.97c.23,0,.45.45.11.68h-21.64c-1.47,1.01-3.04,1.35-4.73.68s-1.01-.68-1.13-.68h-6.09c-1.47,0-.34,0-.45-.11s0-.34,0-.45c1.92-.23,3.95,0,5.97,0h0c-.23-.45-.23-1.13-.56-1.13-7.1,0-14.32.23-21.42,0-.34,0-1.35-.23-1.47,0s-.34,2.25-.34,2.82c0,1.92-.11,5.41.34,7.33s0,.23,0,.23h.23c.23.11.34,0,.34-.11-.11-2.37-.34-4.73-.23-7.1s0-1.35.23-1.92c.34-1.47.45-.34.79.23.9,1.69,3.49,1.47,5.07,1.47,14.32.23,28.63-.11,42.95,0,.9-.11,1.8-.11,2.48-.79l.56-1.13c.34,0,.56,1.13.56,1.47.11,1.69.11,3.95,0,5.64s-.23,1.58-.23,2.14,0,.34.23.45c.34,0,.34-.11.34-.45.34-1.92.34-5.19.11-7.21s-.45-1.92-.34-2.37.45-.23.68,0c.34.45.23,1.13.45,1.69.45.23.34-.23.34-.45h-.23l.23-.23h-.23c.45,0,0-1.47-.23-1.58h-23.34l-.45,1.13.11-.23Z"/>
    <path class="cls-4" d="M42.92.49c0,1.58.56,2.93,2.25,3.38.11.68-.45.68-.9.9s-1.01,1.01-1.13,1.58,0,1.35-.23,1.58c-.68.56-.68-1.01-.68-1.35,0-.56-.68-1.47-1.13-1.69s-1.13-.23-1.13-.68.79-.45,1.13-.68c.45-.34.9-.9,1.13-1.47s0-1.92.9-1.47l-.23-.11ZM41.57,4.21c.56.23.79.9,1.01,1.35l1.13-1.47c-.56-.34-.79-.79-1.13-1.35-.11.56-.68.9-1.01,1.47Z"/>
    <path class="cls-4" d="M14.29,20.67c0,2.03.79,3.83,2.82,4.4.23.79-.68.79-1.13,1.13s-1.24,1.24-1.47,2.03-.11,1.8-.34,1.92c-.9.79-.9-1.35-.9-1.69-.11-.68-.79-1.8-1.47-2.25s-1.47-.34-1.47-.79,1.01-.56,1.35-.9c.68-.45,1.24-1.24,1.35-1.92s0-2.48,1.24-1.92ZM12.48,25.4c.68.34,1.01,1.13,1.35,1.69l1.47-1.92c-.68-.45-1.01-1.13-1.47-1.69-.11.79-.9,1.13-1.24,1.8l-.11.11Z"/>
    <path class="cls-4" d="M54.87,17.74c0,2.82,1.01,5.07,3.83,5.86.23,1.13-.79,1.13-1.58,1.58s-1.69,1.69-2.03,2.71-.11,2.37-.45,2.59c-1.24,1.01-1.13-1.8-1.24-2.37-.23-.9-1.13-2.48-1.92-2.93s-1.92-.45-2.03-1.13,1.35-.79,1.92-1.13c.79-.56,1.58-1.58,1.92-2.59s0-3.27,1.58-2.59ZM52.39,24.05c.9.34,1.35,1.47,1.8,2.25l1.92-2.48c-1.01-.56-1.35-1.47-2.03-2.25-.23,1.01-1.24,1.58-1.69,2.48Z"/>
    <path class="cls-4" d="M2.34,37.69h1.13c.9.11,1.58.9,2.37,1.24s1.69.45,2.37.9,1.01.9.79,1.35-1.13-.45-1.47-.56c-1.35-.79-2.71.79-4.17-1.01s-.34-.56-1.01-1.13-.34-.68,0-.79Z"/>
    <path class="cls-4" d="M66.03,37.69c.34,0,1.58-.11,1.47.45s-.34.34-.56.45c-.79.56-.79,1.47-1.8,1.8s-2.14-.34-3.04.23-.79,1.01-1.35.45c0-1.47,1.8-1.69,2.82-2.14s1.35-1.13,2.48-1.35v.11Z"/>
    <path class="cls-4" d="M22.97,2.85h1.13c.45.9-1.01.68-1.13.68.23,1.58-1.01,1.58-.79,0-1.47.11-1.58-.9,0-.68,0-1.69,1.01-1.69.79,0Z"/>
    <path class="cls-4" d="M25.22,8.15c1.58-.23,1.47.9,0,.79v1.01c-.9.68-.68-.45-.79-1.01-.11-.23-1.24,0-1.13-.45s1.01-.23,1.13-.45c.11-.45-.23-1.01.34-1.13.56,0,.34.9.45,1.24Z"/>
    <path class="cls-4" d="M37.17,7.59c0,.34.23,1.35-.45,1.24-.56,0-.23-1.01-.34-1.13-.34-.11-1.01,0-1.13-.34-.11-.56.79-.45,1.13-.45,0-.34,0-1.13.23-1.24.68-.23.34,1.01.56,1.24,1.58,0,1.35,1.01,0,.79v-.11Z"/>
    <path class="cls-4" d="M61.52,33.86c1.58-.23,1.47.9,0,.68,0,.45,0,1.47-.56,1.24s0-.9-.23-1.13c-.11-.23-1.13,0-1.13-.45s.9-.34,1.13-.45c0-.11-.23-1.47.56-1.01.23.23,0,.9.11,1.13h.11Z"/>
    <path class="cls-4" d="M23.53,23.6c1.47-.11,1.47.79,0,.79-.23.11.23,1.35-.56,1.24s-.11-.79-.23-1.13c-.11-.23-1.24.11-1.13-.45s.79-.34,1.13-.34c0-.56,0-1.58.68-.9v.9l.11-.11Z"/>
    <path class="cls-4" d="M8.99,33.86l.23,1.13c1.58,0,1.35.9,0,.68.23,1.58-.9,1.58-.68,0-1.47.23-1.47-.9,0-.68,0-.45-.11-1.35.56-1.13h-.11Z"/>
    <path class="cls-4" d="M8.87,42.99c-.11.34-1.69.45-2.03.34-1.58-.11-1.58-1.24,0-1.35s2.59,0,2.03,1.01Z"/>
    <path class="cls-4" d="M63.78,43.1c-.45.45-3.04.45-3.04-.34s3.04-1.01,3.16,0,0,.34,0,.34h-.11Z"/>
    <path class="cls-3" d="M4.25,44.68c.68-.23.9,1.24,0,.9s-.34-.9,0-.9Z"/>
    <path class="cls-3" d="M65.24,44.68c.56,0,.79.9.11,1.01s-.79-.9-.11-1.01Z"/>
    <path class="cls-3" d="M46.64,8.38c-.45.45-1.24-.56-.56-.79s.9.45.56.79Z"/>
    <path class="cls-3" d="M22.85,20.33c.34.23,0,.9-.45.79-.9-.23-.11-1.35.45-.79Z"/>
    <path class="cls-3" d="M28.26,2.07c.68,0,.68,1.01,0,1.01s-.68-.9,0-1.01Z"/>
    <path class="cls-3" d="M46.08,21.57c.68,0,.68.9.11,1.01s-.79-.9-.11-1.01Z"/>
    <path class="cls-3" d="M48.89,18.19c.45.45-.56,1.24-.79.56s.45-.9.79-.56Z"/>
    <path class="cls-3" d="M16.31,14.8c.56.45-.68,1.24-.9.34s.56-.56.9-.34Z"/>
    <path class="cls-3" d="M40.21.04c.68-.23.9.68.34.9s-.9-.68-.34-.9Z"/>
    <path class="cls-3" d="M19.47,17.28c.79-.23.9.68.34.9s-.79-.68-.34-.9Z"/>
    <path class="cls-3" d="M39.54,12.77c.9-.34.9,1.13,0,.9s-.45-.79,0-.9Z"/>
    <path class="cls-3" d="M42.36,10.18c.68-.23.79.68.34.9s-.9-.68-.34-.9Z"/>
    <path class="cls-3" d="M11.69,15.14c.68-.23.79.68.34.9s-.79-.68-.34-.9Z"/>
    <path class="cls-3" d="M60.28,10.18c.34,0,.68.34.45.68-.56.79-1.24-.56-.45-.68Z"/>
    <path class="cls-3" d="M64.11,27.77c.68,0,.56.9,0,.9s-.56-.9,0-.9Z"/>
    <path class="cls-3" d="M18.12,1.39c.34.45-.45,1.13-.79.56s.56-.9.79-.56Z"/>
    <path class="cls-3" d="M27.59,11.08c.68-.23.79.79.34.9-.68.23-.79-.68-.34-.9Z"/>
    <path class="cls-3" d="M50.81,14.69c.68-.23.9.68.34.79s-.68-.68-.34-.79Z"/>
    <path class="cls-3" d="M47.09,1.16c.9-.23.79,1.01,0,.79s-.34-.68,0-.79Z"/>
    <path class="cls-3" d="M20.71,28.11c.45-.11.68.56.23.68s-.68-.56-.23-.68Z"/>
    <path class="cls-3" d="M64.11,32.39c.56-.23.79.56.11.68s-.45-.56-.11-.68Z"/>
    <path class="cls-2" d="M37.06,53.92c.34-.45,1.24-.68,1.8-.68,4.4-.34,9.13.34,13.53,0,2.82.34,5.97,0,8.79.23.68,0,1.13.34,1.58.79-.34.34-.79,0-1.13,0h-9.92c-3.27,0-9.24.34-13.53,0s-.9-.11-1.24-.23l.11-.11Z"/>
    <path class="cls-2" d="M32.89,53.81c0,.23,0,.11-.11.23-.23.11-.9.23-1.13.23-3.61.23-7.89,0-11.5,0s-.45,0-.68,0H7.18l.9-.68c.23,0,.45-.11.68-.11,3.27-.34,6.99.23,10.26-.23,3.95.23,8.34-.45,12.29,0s1.13.34,1.69.56h-.11Z"/>
    <path class="cls-2" d="M30.29,52.8c0,.11-.23,0-.34,0-5.75.23-11.5,0-17.14.34-.9-.11-2.03.11-2.82,0s-.23-.11-.45-.11l.23-.23.34.23s.56-.34.68-.34c.23,0,.34.11.56.11h1.8c.68,0,0-.11.11-.23h2.25c2.82-.11,5.75-.45,8.57-.45s4.17,0,6.2.68Z"/>
    <path class="cls-2" d="M58.7,52.68c0,.34,0,0,.34,0h1.35l.68.34c0,.11-.34.11-.45.11-3.16,0-6.31-.23-9.36-.34h-11.72c1.92-.79,3.95-1.01,5.97-.9,4.4.34,8.91.45,13.3.68l-.11.11Z"/>
    <path class="cls-2" d="M14.62,36.45c.79,0,1.24.34,1.8.9s.45.79.79.9c.45.23,1.92,0,2.14.79s-2.14.34-2.59.23c-1.01,0-2.25.34-3.16-.23-1.35-.9-.34-2.48,1.13-2.59h-.11Z"/>
    <path class="cls-2" d="M56.45,38.93c-.79.79-2.14.34-3.16.34s-2.59.68-2.59-.11,1.69-.68,2.14-.9.56-.9.79-1.13c1.69-1.58,4.4.34,2.82,1.8Z"/>
    <path class="cls-2" d="M21.5,51.22c0,.11-.23,0-.34,0h-1.47c-4.17.11-8.34.23-12.51.23s-4.51.23-6.31,0-.23,0-.34-.11c.11-.23.11-.56.45-.45,6.76,0,13.53-.11,20.29.23l.23.11Z"/>
    <path class="cls-2" d="M48.44,51.33c0-.11.34-.11.45-.23,1.69-.11,3.49,0,5.19,0h12.4c4.06,0,2.14-.45,2.59.45,0,.11-.23.11-.34.11-2.37.23-5.41,0-7.89,0h-12.51l.11-.34Z"/>
    <path class="cls-2" d="M6.96,55.28c-.23.34-.56.23-.79.56s-.23.68-.23.9c-.23,2.59.23,5.52,0,8.12,0,.56.45.68.9,1.01-1.24.34-1.58-.56-1.58-1.58-.23-2.48.11-5.19,0-7.67,0-1.01.79-1.58,1.8-1.24l-.11-.11Z"/>
    <path class="cls-2" d="M63.1,65.87c0-.23,0-.11.23-.23.45-.23.68-.34.68-.9-.23-2.59.34-5.75,0-8.34,0-.68-.45-.9-1.01-1.13.9-.45,1.58.34,1.69,1.13-.11,2.48.23,5.3,0,7.78s-.45,1.8-1.58,1.69Z"/>
    <path class="cls-2" d="M37.62,55.16c0,.9-.68,1.35-1.35,1.69-1.58.56-3.49.11-4.06-1.58.56-.45.79.34,1.13.56.68.56,2.14.56,2.93.11s.79-.9,1.35-.9v.11Z"/>
    <path class="cls-2" d="M49.23,41.97c.34.34-.23,1.13-.68.56s.23-1.01.68-.56Z"/>
    <path class="cls-2" d="M20.49,41.86c.68-.23.79.79,0,.79s-.34-.68,0-.79Z"/>
    <path class="cls-4" d="M39.31,32.5c-.11-1.13-1.13-2.25-1.13-3.61s.23-1.47.68-1.58c.79,0,.34,1.13.34,1.58,0,1.24,1.58,2.93,2.14,4.06,2.14,4.4,1.35,10.71-3.61,12.63-.34.11-2.14.68-1.92-.11s1.24-.56,1.58-.79c4.06-1.8,4.73-6.2,3.49-10.03l-.23,1.58c-.34,1.69-1.8,3.72-3.83,3.49s-.9-.68-.56-1.24.56-.23.68-1.01c.23-2.25-.34-4.06-1.8-5.75s-1.35-1.47-1.8-1.35c-.45.45,0,1.35,0,1.92,0,1.58-.45,3.38-1.58,4.51-1.69,1.58-3.38.68-3.49-1.58-.45.68-.79,1.47-.9,2.25-.45,2.93,1.01,4.96,3.38,6.54s1.13.45,1.01.79c0,.79-1.35,0-1.8-.11-3.83-2.14-4.73-7.33-2.14-10.82s1.24-1.58,2.03-1.24c-1.47-3.38-.34-6.65,2.37-8.91s.79-.68,1.24-.68c0-.45,0-1.47.34-1.8s.79-.34,1.01,0,.34,3.38.45,4.17c.34,2.48,1.58,4.4,2.93,6.43l1.01,2.03v-1.24l.11-.11Z"/>
    <path class="cls-4" d="M34.8,34.98c.56,0,.45.68.34.9-.79,2.71-3.38,4.62-1.92,7.89s1.24,1.47,1.35,1.8c0,.45-.34.56-.68.45-.9-.34-1.69-2.03-1.92-2.82-.68-3.04,1.47-5.19,2.48-7.89,0,0,.23-.23.34-.23v-.11Z"/>
    <path class="cls-5" d="M51.83,10.86s2.03.56,3.95-1.47,2.03-5.07,2.03-5.07"/>
  </g>
</svg>